<svg xmlns="http://www.w3.org/2000/svg" width="608" height="456" viewBox="0 0 608 456">
  <title>Custom channel 4:3 icon and preview frame guide</title>
  <desc>Native 608 by 456 channel preview with its exact rounded display mask, center axes, and 128 by 96 icon artwork slot.</desc>
  <path d="M0 0H608V456H0Z M 168,8 C 120,8 70,10 45,16 C 23,24 16,48 12,96 C 9,168 9,288 12,360 C 16,408 28,432 52,440 C 78,446 120,448 168,448 H 440 C 488,448 530,446 556,440 C 580,432 592,408 596,360 C 599,288 599,168 596,96 C 592,48 580,24 558,16 C 533,10 488,8 440,8 Z" fill="#0f172a" fill-opacity="0.22" fill-rule="evenodd" />
  <g fill="none" stroke-linecap="square">
    <path d="M304 0V456M0 228H608" stroke="#2563eb" stroke-width="1" stroke-dasharray="8 6" />
    <path d="M0 0H608V456H0Z M 168,8 C 120,8 70,10 45,16 C 23,24 16,48 12,96 C 9,168 9,288 12,360 C 16,408 28,432 52,440 C 78,446 120,448 168,448 H 440 C 488,448 530,446 556,440 C 580,432 592,408 596,360 C 599,288 599,168 596,96 C 592,48 580,24 558,16 C 533,10 488,8 440,8 Z" stroke="#dc2626" stroke-width="2" stroke-dasharray="6 4" />
    <rect x="240" y="180" width="128" height="96" stroke="#16a34a" stroke-width="2" />
    <rect x="241" y="181" width="126" height="94" stroke="#f59e0b" stroke-width="1" stroke-dasharray="4 6" />
  </g>
  <g fill="#f8fafc" stroke="#0f172a" stroke-width="0.5" paint-order="stroke" font-family="Arial, sans-serif" font-size="13">
    <text x="24" y="24">608×456 native display canvas</text>
    <text x="24" y="42">red: exact rounded display mask boundary</text>
    <text x="24" y="60">green: 128×96 icon artwork slot</text>
    <text x="24" y="78">slot: x=240…368, y=180…276</text>
    <text x="312" y="220">center (304, 228)</text>
  </g>
</svg>
